<svg width="0" height="0" class="hidden">
  <symbol xmlns="http://www.w3.org/2000/svg" viewBox="0 0 256 512" id="chevron-right-regular">
    <path fill="currentColor" d="M24.707 38.101L4.908 57.899c-4.686 4.686-4.686 12.284 0 16.971L185.607 256 4.908 437.13c-4.686 4.686-4.686 12.284 0 16.971L24.707 473.9c4.686 4.686 12.284 4.686 16.971 0l209.414-209.414c4.686-4.686 4.686-12.284 0-16.971L41.678 38.101c-4.687-4.687-12.285-4.687-16.971 0z"></path>
  </symbol>
  <symbol aria-hidden="true" data-prefix="far" data-icon="cogs" xmlns="http://www.w3.org/2000/svg" viewBox="0 0 640 512" id="chevron-right-solid">
    <path fill="currentColor" d="M217.1 478.1c-23.8 0-41.6-3.5-57.5-7.5-10.6-2.7-18.1-12.3-18.1-23.3v-31.7c-9.4-4.4-18.4-9.6-26.9-15.6l-26.7 15.4c-9.6 5.6-21.9 3.8-29.5-4.3-35.4-37.6-44.2-58.6-57.2-98.5-3.6-10.9 1.1-22.7 11-28.4l26.8-15c-.9-10.3-.9-20.7 0-31.1L12.2 223c-10-5.6-14.6-17.5-11-28.4 13.1-40 21.9-60.9 57.2-98.5 7.6-8.1 19.8-9.9 29.5-4.3l26.7 15.4c8.5-6 17.5-11.2 26.9-15.6V61.4c0-11.1 7.6-20.8 18.4-23.3 44.2-10.5 70-10.5 114.3 0 10.8 2.6 18.4 12.2 18.4 23.3v30.4c9.4 4.4 18.4 9.6 26.9 15.6L346.2 92c9.7-5.6 21.9-3.7 29.6 4.4 26.1 27.9 48.4 58.5 56.8 100.3 2 9.8-2.4 19.8-10.9 25.1l-26.6 16.5c.9 10.3.9 20.7 0 31.1l26.6 16.5c8.4 5.2 12.9 15.2 10.9 24.9-8.1 40.5-29.6 71.3-56.9 100.6-7.6 8.1-19.8 9.9-29.5 4.3l-26.7-15.4c-8.5 6-17.5 11.2-26.9 15.6v31.7c0 11-7.4 20.6-18.1 23.3-15.8 3.8-33.6 7.2-57.4 7.2zm-27.6-50.7c18.3 2.9 36.9 2.9 55.1 0v-44.8l16-5.7c15.2-5.4 29.1-13.4 41.3-23.9l12.9-11 38.8 22.4c11.7-14.4 21-30.5 27.6-47.7l-38.8-22.4 3.1-16.7c2.9-15.9 2.9-32 0-47.9l-3.1-16.7 38.8-22.4c-6.6-17.2-15.9-33.3-27.6-47.7l-38.8 22.4-12.9-11c-12.3-10.5-26.2-18.6-41.3-23.9l-16-5.7V80c-18.3-2.9-36.9-2.9-55.1 0v44.8l-16 5.7c-15.2 5.4-29.1 13.4-41.3 23.9l-12.9 11L80.5 143c-11.7 14.4-21 30.5-27.6 47.7l38.8 22.4-3.1 16.7c-2.9 15.9-2.9 32 0 47.9l3.1 16.7-38.8 22.4c6.6 17.2 15.9 33.4 27.6 47.7l38.8-22.4 12.9 11c12.3 10.5 26.2 18.6 41.3 23.9l16 5.7v44.7zm27.1-85.1c-22.6 0-45.2-8.6-62.4-25.8-34.4-34.4-34.4-90.4 0-124.8 34.4-34.4 90.4-34.4 124.8 0 34.4 34.4 34.4 90.4 0 124.8-17.3 17.2-39.9 25.8-62.4 25.8zm0-128.4c-10.3 0-20.6 3.9-28.5 11.8-15.7 15.7-15.7 41.2 0 56.9 15.7 15.7 41.2 15.7 56.9 0 15.7-15.7 15.7-41.2 0-56.9-7.8-7.9-18.1-11.8-28.4-11.8zM638.5 85c-1-5.8-6-10-11.9-10h-16.1c-3.5-9.9-8.8-19-15.5-26.8l8-13.9c2.9-5.1 1.8-11.6-2.7-15.3C591 11.3 580.5 5.1 569 .8c-5.5-2.1-11.8.1-14.7 5.3l-8 13.9c-10.2-1.9-20.7-1.9-30.9 0l-8-13.9c-3-5.1-9.2-7.3-14.7-5.3-11.5 4.3-22.1 10.5-31.4 18.2-4.5 3.7-5.7 10.2-2.7 15.3l8 13.9c-6.7 7.8-12 16.9-15.5 26.8H435c-5.9 0-11 4.3-11.9 10.2-2 12.2-1.9 24.5 0 36.2 1 5.8 6 10 11.9 10h16.1c3.5 9.9 8.8 19 15.5 26.8l-8 13.9c-2.9 5.1-1.8 11.6 2.7 15.3 9.3 7.7 19.9 13.9 31.4 18.2 5.5 2.1 11.8-.1 14.7-5.3l8-13.9c10.2 1.9 20.7 1.9 30.9 0l8 13.9c3 5.1 9.2 7.3 14.7 5.3 11.5-4.3 22.1-10.5 31.4-18.2 4.5-3.7 5.7-10.2 2.7-15.3l-8-13.9c6.7-7.8 12-16.9 15.5-26.8h16.1c5.9 0 11-4.3 11.9-10.2 1.9-12.2 1.9-24.4-.1-36.2zm-107.8 50.2c-17.7 0-32-14.3-32-32s14.3-32 32-32 32 14.3 32 32-14.3 32-32 32zm107.8 255.4c-1-5.8-6-10-11.9-10h-16.1c-3.5-9.9-8.8-19-15.5-26.8l8-13.9c2.9-5.1 1.8-11.6-2.7-15.3-9.3-7.7-19.9-13.9-31.4-18.2-5.5-2.1-11.8.1-14.7 5.3l-8 13.9c-10.2-1.9-20.7-1.9-30.9 0l-8-13.9c-3-5.1-9.2-7.3-14.7-5.3-11.5 4.3-22.1 10.5-31.4 18.2-4.5 3.7-5.7 10.2-2.7 15.3l8 13.9c-6.7 7.8-12 16.9-15.5 26.8h-16.1c-5.9 0-11 4.3-11.9 10.2-2 12.2-1.9 24.5 0 36.2 1 5.8 6 10 11.9 10H451c3.5 9.9 8.8 19 15.5 26.8l-8 13.9c-2.9 5.1-1.8 11.6 2.7 15.3 9.3 7.7 19.9 13.9 31.4 18.2 5.5 2.1 11.8-.1 14.7-5.3l8-13.9c10.2 1.9 20.7 1.9 30.9 0l8 13.9c3 5.1 9.2 7.3 14.7 5.3 11.5-4.3 22.1-10.5 31.4-18.2 4.5-3.7 5.7-10.2 2.7-15.3l-8-13.9c6.7-7.8 12-16.9 15.5-26.8h16.1c5.9 0 11-4.3 11.9-10.2 2-12.1 2-24.4 0-36.2zm-107.8 50.2c-17.7 0-32-14.3-32-32s14.3-32 32-32 32 14.3 32 32-14.3 32-32 32z"></path>
  </symbol>
  <symbol xmlns="http://www.w3.org/2000/svg" viewBox="0 0 320 512" id="chevron-up-regular">
    <path fill="currentColor" d="M285.476 272.971L91.132 467.314c-9.373 9.373-24.569 9.373-33.941 0l-22.667-22.667c-9.357-9.357-9.375-24.522-.04-33.901L188.505 256 34.484 101.255c-9.335-9.379-9.317-24.544.04-33.901l22.667-22.667c9.373-9.373 24.569-9.373 33.941 0L285.475 239.03c9.373 9.372 9.373 24.568.001 33.941z"></path>
  </symbol>
  <symbol xmlns="http://www.w3.org/2000/svg" viewBox="0 0 448 512" id="chevron-up-solid">
    <path fill="currentColor" d="M240.971 130.524l194.343 194.343c9.373 9.373 9.373 24.569 0 33.941l-22.667 22.667c-9.357 9.357-24.522 9.375-33.901.04L224 227.495 69.255 381.516c-9.379 9.335-24.544 9.317-33.901-.04l-22.667-22.667c-9.373-9.373-9.373-24.569 0-33.941L207.03 130.525c9.372-9.373 24.568-9.373 33.941-.001z"></path>
  </symbol>
  <symbol xmlns="http://www.w3.org/2000/svg" viewBox="0 0 384 512" id="cogs-regular">
    <path fill="currentColor" d="M224 136V0H24C10.7 0 0 10.7 0 24v464c0 13.3 10.7 24 24 24h336c13.3 0 24-10.7 24-24V160H248c-13.2 0-24-10.8-24-24zm64 236c0 6.6-5.4 12-12 12H108c-6.6 0-12-5.4-12-12v-8c0-6.6 5.4-12 12-12h168c6.6 0 12 5.4 12 12v8zm0-64c0 6.6-5.4 12-12 12H108c-6.6 0-12-5.4-12-12v-8c0-6.6 5.4-12 12-12h168c6.6 0 12 5.4 12 12v8zm0-72v8c0 6.6-5.4 12-12 12H108c-6.6 0-12-5.4-12-12v-8c0-6.6 5.4-12 12-12h168c6.6 0 12 5.4 12 12zm96-114.1v6.1H256V0h6.1c6.4 0 12.5 2.5 17 7l97.9 98c4.5 4.5 7 10.6 7 16.9z"></path>
  </symbol>
  <symbol aria-hidden="true" data-prefix="fas" data-icon="cogs" xmlns="http://www.w3.org/2000/svg" viewBox="0 0 640 512" id="cogs-solid">
    <path fill="currentColor" d="M512.1 191l-8.2 14.3c-3 5.3-9.4 7.5-15.1 5.4-11.8-4.4-22.6-10.7-32.1-18.6-4.6-3.8-5.8-10.5-2.8-15.7l8.2-14.3c-6.9-8-12.3-17.3-15.9-27.4h-16.5c-6 0-11.2-4.3-12.2-10.3-2-12-2.1-24.6 0-37.1 1-6 6.2-10.4 12.2-10.4h16.5c3.6-10.1 9-19.4 15.9-27.4l-8.2-14.3c-3-5.2-1.9-11.9 2.8-15.7 9.5-7.9 20.4-14.2 32.1-18.6 5.7-2.1 12.1.1 15.1 5.4l8.2 14.3c10.5-1.9 21.2-1.9 31.7 0L552 6.3c3-5.3 9.4-7.5 15.1-5.4 11.8 4.4 22.6 10.7 32.1 18.6 4.6 3.8 5.8 10.5 2.8 15.7l-8.2 14.3c6.9 8 12.3 17.3 15.9 27.4h16.5c6 0 11.2 4.3 12.2 10.3 2 12 2.1 24.6 0 37.1-1 6-6.2 10.4-12.2 10.4h-16.5c-3.6 10.1-9 19.4-15.9 27.4l8.2 14.3c3 5.2 1.9 11.9-2.8 15.7-9.5 7.9-20.4 14.2-32.1 18.6-5.7 2.1-12.1-.1-15.1-5.4l-8.2-14.3c-10.4 1.9-21.2 1.9-31.7 0zm-10.5-58.8c38.5 29.6 82.4-14.3 52.8-52.8-38.5-29.7-82.4 14.3-52.8 52.8zM386.3 286.1l33.7 16.8c10.1 5.8 14.5 18.1 10.5 29.1-8.9 24.2-26.4 46.4-42.6 65.8-7.4 8.9-20.2 11.1-30.3 5.3l-29.1-16.8c-16 13.7-34.6 24.6-54.9 31.7v33.6c0 11.6-8.3 21.6-19.7 23.6-24.6 4.2-50.4 4.4-75.9 0-11.5-2-20-11.9-20-23.6V418c-20.3-7.2-38.9-18-54.9-31.7L74 403c-10 5.8-22.9 3.6-30.3-5.3-16.2-19.4-33.3-41.6-42.2-65.7-4-10.9.4-23.2 10.5-29.1l33.3-16.8c-3.9-20.9-3.9-42.4 0-63.4L12 205.8c-10.1-5.8-14.6-18.1-10.5-29 8.9-24.2 26-46.4 42.2-65.8 7.4-8.9 20.2-11.1 30.3-5.3l29.1 16.8c16-13.7 34.6-24.6 54.9-31.7V57.1c0-11.5 8.2-21.5 19.6-23.5 24.6-4.2 50.5-4.4 76-.1 11.5 2 20 11.9 20 23.6v33.6c20.3 7.2 38.9 18 54.9 31.7l29.1-16.8c10-5.8 22.9-3.6 30.3 5.3 16.2 19.4 33.2 41.6 42.1 65.8 4 10.9.1 23.2-10 29.1l-33.7 16.8c3.9 21 3.9 42.5 0 63.5zm-117.6 21.1c59.2-77-28.7-164.9-105.7-105.7-59.2 77 28.7 164.9 105.7 105.7zm243.4 182.7l-8.2 14.3c-3 5.3-9.4 7.5-15.1 5.4-11.8-4.4-22.6-10.7-32.1-18.6-4.6-3.8-5.8-10.5-2.8-15.7l8.2-14.3c-6.9-8-12.3-17.3-15.9-27.4h-16.5c-6 0-11.2-4.3-12.2-10.3-2-12-2.1-24.6 0-37.1 1-6 6.2-10.4 12.2-10.4h16.5c3.6-10.1 9-19.4 15.9-27.4l-8.2-14.3c-3-5.2-1.9-11.9 2.8-15.7 9.5-7.9 20.4-14.2 32.1-18.6 5.7-2.1 12.1.1 15.1 5.4l8.2 14.3c10.5-1.9 21.2-1.9 31.7 0l8.2-14.3c3-5.3 9.4-7.5 15.1-5.4 11.8 4.4 22.6 10.7 32.1 18.6 4.6 3.8 5.8 10.5 2.8 15.7l-8.2 14.3c6.9 8 12.3 17.3 15.9 27.4h16.5c6 0 11.2 4.3 12.2 10.3 2 12 2.1 24.6 0 37.1-1 6-6.2 10.4-12.2 10.4h-16.5c-3.6 10.1-9 19.4-15.9 27.4l8.2 14.3c3 5.2 1.9 11.9-2.8 15.7-9.5 7.9-20.4 14.2-32.1 18.6-5.7 2.1-12.1-.1-15.1-5.4l-8.2-14.3c-10.4 1.9-21.2 1.9-31.7 0zM501.6 431c38.5 29.6 82.4-14.3 52.8-52.8-38.5-29.6-82.4 14.3-52.8 52.8z"></path>
  </symbol>
  <symbol xmlns="http://www.w3.org/2000/svg" viewBox="0 0 448 512" id="file-alt-regular">
    <path fill="currentColor" d="M6.101 359.293L25.9 379.092c4.686 4.686 12.284 4.686 16.971 0L224 198.393l181.13 180.698c4.686 4.686 12.284 4.686 16.971 0l19.799-19.799c4.686-4.686 4.686-12.284 0-16.971L232.485 132.908c-4.686-4.686-12.284-4.686-16.971 0L6.101 342.322c-4.687 4.687-4.687 12.285 0 16.971z"></path>
  </symbol>
  <symbol xmlns="http://www.w3.org/2000/svg" viewBox="0 0 384 512" id="file-alt-solid">
    <path fill="currentColor" d="M288 248v28c0 6.6-5.4 12-12 12H108c-6.6 0-12-5.4-12-12v-28c0-6.6 5.4-12 12-12h168c6.6 0 12 5.4 12 12zm-12 72H108c-6.6 0-12 5.4-12 12v28c0 6.6 5.4 12 12 12h168c6.6 0 12-5.4 12-12v-28c0-6.6-5.4-12-12-12zm108-188.1V464c0 26.5-21.5 48-48 48H48c-26.5 0-48-21.5-48-48V48C0 21.5 21.5 0 48 0h204.1C264.8 0 277 5.1 286 14.1L369.9 98c9 8.9 14.1 21.2 14.1 33.9zm-128-80V128h76.1L256 51.9zM336 464V176H232c-13.3 0-24-10.7-24-24V48H48v416h288z"></path>
  </symbol>
  <symbol xmlns="http://www.w3.org/2000/svg" viewBox="0 0 300 300" id="file-regular">
    <path fill="#de2910" d="M0 0h300v300H0z"></path>
    <path fill="#ffde00" d="M75 30l26.45 81.41L32.2 61.09h85.6l-69.25 50.32L75 30zm62.14 7.72l18.73-21.52-2.5 28.42-14.68-24.47 26.25 11.17-27.8 6.4zm28.01 24.4l25.62-12.56-13.34 25.22-4.04-28.25 19.87 20.48-28.11-4.89zm.43 38.76l28.51-1.02-22.47 17.58 7.84-27.43 9.79 26.8-23.67-15.93zm-27.29 24.75l26.69 10.07-27.51 7.54 17.82-22.27-1.32 28.5-15.68-23.84z"></path>
  </symbol>
  <symbol xmlns="http://www.w3.org/2000/svg" viewBox="0 0 384 512" id="file-solid">
    <path fill="currentColor" d="M224 136V0H24C10.7 0 0 10.7 0 24v464c0 13.3 10.7 24 24 24h336c13.3 0 24-10.7 24-24V160H248c-13.2 0-24-10.8-24-24zm160-14.1v6.1H256V0h6.1c6.4 0 12.5 2.5 17 7l97.9 98c4.5 4.5 7 10.6 7 16.9z"></path>
  </symbol>
  <symbol xmlns="http://www.w3.org/2000/svg" viewBox="0 0 384 512" id="flag-cn">
    <path fill="currentColor" d="M369.9 97.9L286 14C277 5 264.8-.1 252.1-.1H48C21.5 0 0 21.5 0 48v416c0 26.5 21.5 48 48 48h288c26.5 0 48-21.5 48-48V131.9c0-12.7-5.1-25-14.1-34zM332.1 128H256V51.9l76.1 76.1zM48 464V48h160v104c0 13.3 10.7 24 24 24h104v288H48z"></path>
  </symbol>
  <symbol xmlns="http://www.w3.org/2000/svg" viewBox="0 0 300 300" id="flag-ru">
    <path fill="#fff" d="M-150 0h599.69v299.97H-150z"></path>
    <path fill="#cf142b" d="M119.86 179.89v120.08h59.97V179.89h269.86v-59.97H179.83V0h-59.97v119.92H-150v59.97h269.86z"></path>
    <path fill="#00247d" d="M199.83 97.1V0h194.16L199.83 97.1zm0 105.77v97.1h194.16l-194.16-97.1zm-99.97 0v97.1H-94.3l194.16-97.1zm0-105.77V0H-94.3L99.86 97.1z"></path>
    <path fill="#cf142b" d="M449.69 0h-33.31L216.8 99.99h33.31L450 0M82.89 199.97H49.58L-150 299.96h33.31L83.2 199.97m-66.66-99.91h33.3L-150 0v16.77l166.54 83.29zm266.51 99.88h-33.31L449.58 300v-16.77l-166.53-83.29z"></path>
  </symbol>
  <symbol xmlns="http://www.w3.org/2000/svg" viewBox="0 0 300 300" id="flag-uk">
    <path fill="#fff" d="M0 0h300v150H0z"></path>
    <path fill="#d52b1e" d="M0 150h300v150H0z"></path>
    <path fill="#0039a6" d="M0 100h300v100H0z"></path>
  </symbol>
  <symbol xmlns="http://www.w3.org/2000/svg" viewBox="0 0 576 512" id="folder-open-regular">
    <path fill="currentColor" d="M572.694 292.093L500.27 416.248A63.997 63.997 0 01444.989 448H45.025c-18.523 0-30.064-20.093-20.731-36.093l72.424-124.155A64 64 0 01152 256h399.964c18.523 0 30.064 20.093 20.73 36.093zM152 224h328v-48c0-26.51-21.49-48-48-48H272l-64-64H48C21.49 64 0 85.49 0 112v278.046l69.077-118.418C86.214 242.25 117.989 224 152 224z"></path>
  </symbol>
  <symbol xmlns="http://www.w3.org/2000/svg" viewBox="0 0 576 512" id="folder-open-solid">
    <path fill="currentColor" d="M527.9 224H480v-48c0-26.5-21.5-48-48-48H272l-64-64H48C21.5 64 0 85.5 0 112v288c0 26.5 21.5 48 48 48h400c16.5 0 31.9-8.5 40.7-22.6l79.9-128c20-31.9-3-73.4-40.7-73.4zM48 118c0-3.3 2.7-6 6-6h134.1l64 64H426c3.3 0 6 2.7 6 6v42H152c-16.8 0-32.4 8.8-41.1 23.2L48 351.4zm400 282H72l77.2-128H528z"></path>
  </symbol>
  <symbol xmlns="http://www.w3.org/2000/svg" viewBox="0 0 576 512" id="folder-regular">
    <path fill="currentColor" d="M280.37 148.26L96 300.11V464a16 16 0 0016 16l112.06-.29a16 16 0 0015.92-16V368a16 16 0 0116-16h64a16 16 0 0116 16v95.64a16 16 0 0016 16.05L464 480a16 16 0 0016-16V300L295.67 148.26a12.19 12.19 0 00-15.3 0zM571.6 251.47L488 182.56V44.05a12 12 0 00-12-12h-56a12 12 0 00-12 12v72.61L318.47 43a48 48 0 00-61 0L4.34 251.47a12 12 0 00-1.6 16.9l25.5 31A12 12 0 0045.15 301l235.22-193.74a12.19 12.19 0 0115.3 0L530.9 301a12 12 0 0016.9-1.6l25.5-31a12 12 0 00-1.7-16.93z"></path>
  </symbol>
  <symbol xmlns="http://www.w3.org/2000/svg" viewBox="0 0 512 512" id="folder-solid">
    <path fill="currentColor" d="M464 128H272l-54.63-54.63c-6-6-14.14-9.37-22.63-9.37H48C21.49 64 0 85.49 0 112v288c0 26.51 21.49 48 48 48h416c26.51 0 48-21.49 48-48V176c0-26.51-21.49-48-48-48zm0 272H48V112h140.12l54.63 54.63c6 6 14.14 9.37 22.63 9.37H464v224z"></path>
  </symbol>
  <symbol xmlns="http://www.w3.org/2000/svg" viewBox="0 0 512 512" id="headset-regular">
    <path fill="currentColor" d="M192 208c0-17.67-14.33-32-32-32h-16c-35.35 0-64 28.65-64 64v48c0 35.35 28.65 64 64 64h16c17.67 0 32-14.33 32-32V208zm176 144c35.35 0 64-28.65 64-64v-48c0-35.35-28.65-64-64-64h-16c-17.67 0-32 14.33-32 32v112c0 17.67 14.33 32 32 32h16zM256 0C113.18 0 4.58 118.83 0 256v16c0 8.84 7.16 16 16 16h16c8.84 0 16-7.16 16-16v-16c0-114.69 93.31-208 208-208s208 93.31 208 208h-.12c.08 2.43.12 165.72.12 165.72 0 23.35-18.93 42.28-42.28 42.28H320c0-26.51-21.49-48-48-48h-32c-26.51 0-48 21.49-48 48s21.49 48 48 48h181.72c49.86 0 90.28-40.42 90.28-90.28V256C507.42 118.83 398.82 0 256 0z"></path>
  </symbol>
  <symbol xmlns="http://www.w3.org/2000/svg" viewBox="0 0 576 512" id="headset-solid">
    <path fill="currentColor" d="M570.24 247.41L512 199.52V104a8 8 0 00-8-8h-32a8 8 0 00-7.95 7.88v56.22L323.87 45a56.06 56.06 0 00-71.74 0L5.76 247.41a16 16 0 00-2 22.54L14 282.25a16 16 0 0022.53 2L64 261.69V448a32.09 32.09 0 0032 32h128a32.09 32.09 0 0032-32V344h64v104a32.09 32.09 0 0032 32h128a32.07 32.07 0 0032-31.76V261.67l27.53 22.62a16 16 0 0022.53-2L572.29 270a16 16 0 00-2.05-22.59zM463.85 432H368V328a32.09 32.09 0 00-32-32h-96a32.09 32.09 0 00-32 32v104h-96V222.27L288 77.65l176 144.56z"></path>
  </symbol>
  <symbol xmlns="http://www.w3.org/2000/svg" viewBox="0 0 512 512" id="home-regular">
    <path fill="currentColor" d="M224 336V192.36c0-17.67-14.33-32-32-32h-48c-35.35 0-64 28.65-64 64V304c0 35.35 28.65 64 64 64h48c17.67 0 32-14.33 32-32zm-48-16h-32c-8.82 0-16-7.18-16-16v-79.64c0-8.82 7.18-16 16-16h32V320zM256 0C113.18 0 4.58 118.83 0 256v16c0 8.84 7.16 16 16 16h16c8.84 0 16-7.16 16-16v-16c0-114.69 93.31-208 208-208s208 93.31 208 208h-.12c.08 2.43.12 165.72.12 165.72 0 23.35-18.93 42.28-42.28 42.28H320c0-26.51-21.49-48-48-48h-32c-26.51 0-48 21.49-48 48s21.49 48 48 48h181.72c49.86 0 90.28-40.42 90.28-90.28V256C507.42 118.83 398.82 0 256 0zm112 368c35.35 0 64-28.65 64-64v-79.64c0-35.35-28.65-64-64-64h-48c-17.67 0-32 14.33-32 32V336c0 17.67 14.33 32 32 32h48zm-32-159.64h32c8.82 0 16 7.18 16 16V304c0 8.82-7.18 16-16 16h-32V208.36z"></path>
  </symbol>
  <symbol xmlns="http://www.w3.org/2000/svg" viewBox="0 0 512 512" id="home-solid">
    <path fill="currentColor" d="M475.115 131.752L336 220.28V152c0-18.916-20.931-30.399-36.885-20.248L160 220.28V56c0-13.255-10.745-24-24-24H24C10.745 32 0 42.745 0 56v400c0 13.255 10.745 24 24 24h464c13.255 0 24-10.745 24-24V152c0-18.917-20.931-30.399-36.885-20.248zM464 432H48V80h64v184c0 18.916 20.931 30.399 36.885 20.248L288 195.72V264c0 18.915 20.931 30.399 36.885 20.248L464 195.72V432zm-60-48h-40c-6.627 0-12-5.373-12-12v-40c0-6.627 5.373-12 12-12h40c6.627 0 12 5.373 12 12v40c0 6.627-5.373 12-12 12zm-128 0h-40c-6.627 0-12-5.373-12-12v-40c0-6.627 5.373-12 12-12h40c6.627 0 12 5.373 12 12v40c0 6.627-5.373 12-12 12zm-128 0h-40c-6.627 0-12-5.373-12-12v-40c0-6.627 5.373-12 12-12h40c6.627 0 12 5.373 12 12v40c0 6.627-5.373 12-12 12z"></path>
  </symbol>
  <symbol xmlns="http://www.w3.org/2000/svg" viewBox="0 0 512 512" id="industry-alt-regular">
    <path fill="currentColor" d="M475.115 163.781L336 252.309v-68.28c0-18.916-20.931-30.399-36.885-20.248L160 252.309V56c0-13.255-10.745-24-24-24H24C10.745 32 0 42.745 0 56v400c0 13.255 10.745 24 24 24h464c13.255 0 24-10.745 24-24V184.029c0-18.917-20.931-30.399-36.885-20.248zM404 384h-40c-6.627 0-12-5.373-12-12v-40c0-6.627 5.373-12 12-12h40c6.627 0 12 5.373 12 12v40c0 6.627-5.373 12-12 12zm-128 0h-40c-6.627 0-12-5.373-12-12v-40c0-6.627 5.373-12 12-12h40c6.627 0 12 5.373 12 12v40c0 6.627-5.373 12-12 12zm-128 0h-40c-6.627 0-12-5.373-12-12v-40c0-6.627 5.373-12 12-12h40c6.627 0 12 5.373 12 12v40c0 6.627-5.373 12-12 12z"></path>
  </symbol>
  <symbol xmlns="http://www.w3.org/2000/svg" viewBox="0 0 512 512" id="industry-alt-solid">
    <path fill="#1f89f8" d="M314.222 197.78c51.091 51.091 54.377 132.287 9.75 187.16-6.242 7.73-2.784 3.865-84.94 86.02-54.696 54.696-143.266 54.745-197.99 0-54.711-54.69-54.734-143.255 0-197.99 32.773-32.773 51.835-51.899 63.409-63.457 7.463-7.452 20.331-2.354 20.486 8.192a173.31 173.31 0 004.746 37.828c.966 4.029-.272 8.269-3.202 11.198L80.632 312.57c-32.755 32.775-32.887 85.892 0 118.8 32.775 32.755 85.892 32.887 118.8 0l75.19-75.2c32.718-32.725 32.777-86.013 0-118.79a83.722 83.722 0 00-22.814-16.229c-4.623-2.233-7.182-7.25-6.561-12.346 1.356-11.122 6.296-21.885 14.815-30.405l4.375-4.375c3.625-3.626 9.177-4.594 13.76-2.294 12.999 6.524 25.187 15.211 36.025 26.049zM470.958 41.04c-54.724-54.745-143.294-54.696-197.99 0-82.156 82.156-78.698 78.29-84.94 86.02-44.627 54.873-41.341 136.069 9.75 187.16 10.838 10.838 23.026 19.525 36.025 26.049 4.582 2.3 10.134 1.331 13.76-2.294l4.375-4.375c8.52-8.519 13.459-19.283 14.815-30.405.621-5.096-1.938-10.113-6.561-12.346a83.706 83.706 0 01-22.814-16.229c-32.777-32.777-32.718-86.065 0-118.79l75.19-75.2c32.908-32.887 86.025-32.755 118.8 0 32.887 32.908 32.755 86.025 0 118.8l-45.848 45.84c-2.93 2.929-4.168 7.169-3.202 11.198a173.31 173.31 0 014.746 37.828c.155 10.546 13.023 15.644 20.486 8.192 11.574-11.558 30.636-30.684 63.409-63.457 54.733-54.735 54.71-143.3-.001-197.991z"></path>
  </symbol>
  <symbol xmlns="http://www.w3.org/2000/svg" viewBox="0 0 512 512" id="link-regular">
    <path fill="currentColor" d="M80 368H16a16 16 0 00-16 16v64a16 16 0 0016 16h64a16 16 0 0016-16v-64a16 16 0 00-16-16zm0-320H16A16 16 0 000 64v64a16 16 0 0016 16h64a16 16 0 0016-16V64a16 16 0 00-16-16zm0 160H16a16 16 0 00-16 16v64a16 16 0 0016 16h64a16 16 0 0016-16v-64a16 16 0 00-16-16zm416 176H176a16 16 0 00-16 16v32a16 16 0 0016 16h320a16 16 0 0016-16v-32a16 16 0 00-16-16zm0-320H176a16 16 0 00-16 16v32a16 16 0 0016 16h320a16 16 0 0016-16V80a16 16 0 00-16-16zm0 160H176a16 16 0 00-16 16v32a16 16 0 0016 16h320a16 16 0 0016-16v-32a16 16 0 00-16-16z"></path>
  </symbol>
  <symbol xmlns="http://www.w3.org/2000/svg" viewBox="0 0 512 512" id="link-solid">
    <path fill="currentColor" d="M464 128H272l-64-64H48C21.49 64 0 85.49 0 112v288c0 26.51 21.49 48 48 48h416c26.51 0 48-21.49 48-48V176c0-26.51-21.49-48-48-48z"></path>
  </symbol>
  <symbol xmlns="http://www.w3.org/2000/svg" viewBox="0 0 512 512" id="list-alt-regular">
    <path fill="currentColor" d="M464 32H48C21.49 32 0 53.49 0 80v352c0 26.51 21.49 48 48 48h416c26.51 0 48-21.49 48-48V80c0-26.51-21.49-48-48-48zm-6 400H54a6 6 0 01-6-6V86a6 6 0 016-6h404a6 6 0 016 6v340a6 6 0 01-6 6zm-42-92v24c0 6.627-5.373 12-12 12H204c-6.627 0-12-5.373-12-12v-24c0-6.627 5.373-12 12-12h200c6.627 0 12 5.373 12 12zm0-96v24c0 6.627-5.373 12-12 12H204c-6.627 0-12-5.373-12-12v-24c0-6.627 5.373-12 12-12h200c6.627 0 12 5.373 12 12zm0-96v24c0 6.627-5.373 12-12 12H204c-6.627 0-12-5.373-12-12v-24c0-6.627 5.373-12 12-12h200c6.627 0 12 5.373 12 12zm-252 12c0 19.882-16.118 36-36 36s-36-16.118-36-36 16.118-36 36-36 36 16.118 36 36zm0 96c0 19.882-16.118 36-36 36s-36-16.118-36-36 16.118-36 36-36 36 16.118 36 36zm0 96c0 19.882-16.118 36-36 36s-36-16.118-36-36 16.118-36 36-36 36 16.118 36 36z"></path>
  </symbol>
  <symbol xmlns="http://www.w3.org/2000/svg" viewBox="0 0 512 512" id="list-alt-solid">
    <path fill="#1f89f8" d="M326.612 185.391c59.747 59.809 58.927 155.698.36 214.59-.11.12-.24.25-.36.37l-67.2 67.2c-59.27 59.27-155.699 59.262-214.96 0-59.27-59.26-59.27-155.7 0-214.96l37.106-37.106c9.84-9.84 26.786-3.3 27.294 10.606.648 17.722 3.826 35.527 9.69 52.721 1.986 5.822.567 12.262-3.783 16.612l-13.087 13.087c-28.026 28.026-28.905 73.66-1.155 101.96 28.024 28.579 74.086 28.749 102.325.51l67.2-67.19c28.191-28.191 28.073-73.757 0-101.83-3.701-3.694-7.429-6.564-10.341-8.569a16.037 16.037 0 01-6.947-12.606c-.396-10.567 3.348-21.456 11.698-29.806l21.054-21.055c5.521-5.521 14.182-6.199 20.584-1.731a152.482 152.482 0 0120.522 17.197zM467.547 44.449c-59.261-59.262-155.69-59.27-214.96 0l-67.2 67.2c-.12.12-.25.25-.36.37-58.566 58.892-59.387 154.781.36 214.59a152.454 152.454 0 0020.521 17.196c6.402 4.468 15.064 3.789 20.584-1.731l21.054-21.055c8.35-8.35 12.094-19.239 11.698-29.806a16.037 16.037 0 00-6.947-12.606c-2.912-2.005-6.64-4.875-10.341-8.569-28.073-28.073-28.191-73.639 0-101.83l67.2-67.19c28.239-28.239 74.3-28.069 102.325.51 27.75 28.3 26.872 73.934-1.155 101.96l-13.087 13.087c-4.35 4.35-5.769 10.79-3.783 16.612 5.864 17.194 9.042 34.999 9.69 52.721.509 13.906 17.454 20.446 27.294 10.606l37.106-37.106c59.271-59.259 59.271-155.699.001-214.959z"></path>
  </symbol>
  <symbol data-icon="list" xmlns="http://www.w3.org/2000/svg" viewBox="0 0 512 512" id="list-regular">
    <path fill="currentColor" d="M80 48H16A16 16 0 000 64v64a16 16 0 0016 16h64a16 16 0 0016-16V64a16 16 0 00-16-16zm0 160H16a16 16 0 00-16 16v64a16 16 0 0016 16h64a16 16 0 0016-16v-64a16 16 0 00-16-16zm0 160H16a16 16 0 00-16 16v64a16 16 0 0016 16h64a16 16 0 0016-16v-64a16 16 0 00-16-16zm416-136H176a16 16 0 00-16 16v16a16 16 0 0016 16h320a16 16 0 0016-16v-16a16 16 0 00-16-16zm0 160H176a16 16 0 00-16 16v16a16 16 0 0016 16h320a16 16 0 0016-16v-16a16 16 0 00-16-16zm0-320H176a16 16 0 00-16 16v16a16 16 0 0016 16h320a16 16 0 0016-16V88a16 16 0 00-16-16z"></path>
  </symbol>
  <symbol xmlns="http://www.w3.org/2000/svg" viewBox="0 0 576 512" id="list-solid">
    <path fill="currentColor" d="M560 32h-16c-8.84 0-16 7.16-16 16v12.94L47.28 172.41C45.61 165.36 39.56 160 32 160H16c-8.84 0-16 7.16-16 16v160c0 8.84 7.16 16 16 16h16c7.56 0 13.61-5.36 15.28-12.41l115.01 26.67c-1.17 5.78-2.28 11.6-2.28 17.74 0 53.02 42.98 96 96 96 44.19 0 80.99-29.99 92.08-70.66L528 451.06V464c0 8.84 7.16 16 16 16h16c8.84 0 16-7.16 16-16V48c0-8.84-7.16-16-16-16zM256 432c-26.47 0-48-21.53-48-48 0-2.42.9-4.54 1.25-6.85l92.25 21.39C295.3 417.87 277.37 432 256 432zM48 290.5v-69l480-111.31V401.8L48 290.5z"></path>
  </symbol>
  <symbol xmlns="http://www.w3.org/2000/svg" viewBox="0 0 512 512" id="megaphone-regular">
    <path fill="currentColor" d="M464 480H48c-26.51 0-48-21.49-48-48V80c0-26.51 21.49-48 48-48h416c26.51 0 48 21.49 48 48v352c0 26.51-21.49 48-48 48zM128 120c-22.091 0-40 17.909-40 40s17.909 40 40 40 40-17.909 40-40-17.909-40-40-40zm0 96c-22.091 0-40 17.909-40 40s17.909 40 40 40 40-17.909 40-40-17.909-40-40-40zm0 96c-22.091 0-40 17.909-40 40s17.909 40 40 40 40-17.909 40-40-17.909-40-40-40zm288-136v-32c0-6.627-5.373-12-12-12H204c-6.627 0-12 5.373-12 12v32c0 6.627 5.373 12 12 12h200c6.627 0 12-5.373 12-12zm0 96v-32c0-6.627-5.373-12-12-12H204c-6.627 0-12 5.373-12 12v32c0 6.627 5.373 12 12 12h200c6.627 0 12-5.373 12-12zm0 96v-32c0-6.627-5.373-12-12-12H204c-6.627 0-12 5.373-12 12v32c0 6.627 5.373 12 12 12h200c6.627 0 12-5.373 12-12z"></path>
  </symbol>
  <symbol xmlns="http://www.w3.org/2000/svg" viewBox="0 0 384 512" id="megaphone-solid">
    <path fill="currentColor" d="M368 224H16c-8.84 0-16 7.16-16 16v32c0 8.84 7.16 16 16 16h352c8.84 0 16-7.16 16-16v-32c0-8.84-7.16-16-16-16z"></path>
  </symbol>
  <symbol xmlns="http://www.w3.org/2000/svg" viewBox="0 0 576 512" id="minus-regular">
    <path fill="currentColor" d="M32 176c-17.67 0-32 14.33-32 32v96c0 17.67 14.33 32 32 32 11.38 0 20.9-6.28 26.57-15.22l106.99 32.3c-3.35 9.76-5.56 20.04-5.56 30.92 0 52.94 43.06 96 96 96 44.49 0 81.66-30.57 92.5-71.7L480 448V64L58.57 191.22C52.9 182.28 43.38 176 32 176zm179.29 190.88l91.47 27.61C297.95 415.92 278.85 432 256 432c-26.47 0-48-21.53-48-48 0-6.05 1.24-11.79 3.29-17.12zM560 32h-32c-8.84 0-16 7.16-16 16v416c0 8.84 7.16 16 16 16h32c8.84 0 16-7.16 16-16V48c0-8.84-7.16-16-16-16z"></path>
  </symbol>
  <symbol xmlns="http://www.w3.org/2000/svg" viewBox="0 0 576 512" id="minus-solid">
    <path fill="currentColor" d="M552 64H88c-13.255 0-24 10.745-24 24v8H24c-13.255 0-24 10.745-24 24v272c0 30.928 25.072 56 56 56h472c26.51 0 48-21.49 48-48V88c0-13.255-10.745-24-24-24zM56 400a8 8 0 01-8-8V144h16v248a8 8 0 01-8 8zm236-16H140c-6.627 0-12-5.373-12-12v-8c0-6.627 5.373-12 12-12h152c6.627 0 12 5.373 12 12v8c0 6.627-5.373 12-12 12zm208 0H348c-6.627 0-12-5.373-12-12v-8c0-6.627 5.373-12 12-12h152c6.627 0 12 5.373 12 12v8c0 6.627-5.373 12-12 12zm-208-96H140c-6.627 0-12-5.373-12-12v-8c0-6.627 5.373-12 12-12h152c6.627 0 12 5.373 12 12v8c0 6.627-5.373 12-12 12zm208 0H348c-6.627 0-12-5.373-12-12v-8c0-6.627 5.373-12 12-12h152c6.627 0 12 5.373 12 12v8c0 6.627-5.373 12-12 12zm0-96H140c-6.627 0-12-5.373-12-12v-40c0-6.627 5.373-12 12-12h360c6.627 0 12 5.373 12 12v40c0 6.627-5.373 12-12 12z"></path>
  </symbol>
  <symbol xmlns="http://www.w3.org/2000/svg" viewBox="0 0 448 512" id="newspaper-regular">
    <path fill="currentColor" d="M416 208H32c-17.67 0-32 14.33-32 32v32c0 17.67 14.33 32 32 32h384c17.67 0 32-14.33 32-32v-32c0-17.67-14.33-32-32-32z"></path>
  </symbol>
  <symbol xmlns="http://www.w3.org/2000/svg" viewBox="0 0 576 512" id="newspaper-solid">
    <path fill="currentColor" d="M552 64H112c-20.858 0-38.643 13.377-45.248 32H24c-13.255 0-24 10.745-24 24v272c0 30.928 25.072 56 56 56h496c13.255 0 24-10.745 24-24V88c0-13.255-10.745-24-24-24zM48 392V144h16v248c0 4.411-3.589 8-8 8s-8-3.589-8-8zm480 8H111.422c.374-2.614.578-5.283.578-8V112h416v288zM172 280h136c6.627 0 12-5.373 12-12v-96c0-6.627-5.373-12-12-12H172c-6.627 0-12 5.373-12 12v96c0 6.627 5.373 12 12 12zm28-80h80v40h-80v-40zm-40 140v-24c0-6.627 5.373-12 12-12h136c6.627 0 12 5.373 12 12v24c0 6.627-5.373 12-12 12H172c-6.627 0-12-5.373-12-12zm192 0v-24c0-6.627 5.373-12 12-12h104c6.627 0 12 5.373 12 12v24c0 6.627-5.373 12-12 12H364c-6.627 0-12-5.373-12-12zm0-144v-24c0-6.627 5.373-12 12-12h104c6.627 0 12 5.373 12 12v24c0 6.627-5.373 12-12 12H364c-6.627 0-12-5.373-12-12zm0 72v-24c0-6.627 5.373-12 12-12h104c6.627 0 12 5.373 12 12v24c0 6.627-5.373 12-12 12H364c-6.627 0-12-5.373-12-12z"></path>
  </symbol>
  <symbol xmlns="http://www.w3.org/2000/svg" viewBox="0 0 384 512" id="phone-rotary-regular">
    <path fill="currentColor" d="M368 224H224V80c0-8.84-7.16-16-16-16h-32c-8.84 0-16 7.16-16 16v144H16c-8.84 0-16 7.16-16 16v32c0 8.84 7.16 16 16 16h144v144c0 8.84 7.16 16 16 16h32c8.84 0 16-7.16 16-16V288h144c8.84 0 16-7.16 16-16v-32c0-8.84-7.16-16-16-16z"></path>
  </symbol>
  <symbol xmlns="http://www.w3.org/2000/svg" viewBox="0 0 512 512" id="phone-rotary-solid">
    <path fill="currentColor" d="M370.43 192.25A64 64 0 00314.86 160H197.14a64 64 0 00-55.57 32.25L36.22 376.62A32 32 0 0032 392.5V448a32 32 0 0032 32h384a32 32 0 0032-32v-55.5a32 32 0 00-4.22-15.88zM256 384a72 72 0 1172-72 72 72 0 01-72 72zm250.18-261C436.76 65 347.38 32 256 32S75.24 65 5.82 123A16.45 16.45 0 000 135.64V192a16 16 0 0016 16h70.11a16 16 0 0014.31-8.85L128 128c39.9-17.28 83.2-24 128-24 44.77 0 88.07 6.72 128 24l27.58 71.15a16 16 0 0014.31 8.85H496a16 16 0 0016-16v-56.36a16.45 16.45 0 00-5.82-12.64z"></path>
  </symbol>
  <symbol xmlns="http://www.w3.org/2000/svg" viewBox="0 0 448 512" id="plus-regular">
    <path fill="currentColor" d="M416 208H272V64c0-17.67-14.33-32-32-32h-32c-17.67 0-32 14.33-32 32v144H32c-17.67 0-32 14.33-32 32v32c0 17.67 14.33 32 32 32h144v144c0 17.67 14.33 32 32 32h32c17.67 0 32-14.33 32-32V304h144c17.67 0 32-14.33 32-32v-32c0-17.67-14.33-32-32-32z"></path>
  </symbol>
  <symbol xmlns="http://www.w3.org/2000/svg" viewBox="0 0 384 512" id="plus-solid">
    <path fill="currentColor" d="M202.021 0C122.202 0 70.503 32.703 29.914 91.026c-7.363 10.58-5.093 25.086 5.178 32.874l43.138 32.709c10.373 7.865 25.132 6.026 33.253-4.148 25.049-31.381 43.63-49.449 82.757-49.449 30.764 0 68.816 19.799 68.816 49.631 0 22.552-18.617 34.134-48.993 51.164-35.423 19.86-82.299 44.576-82.299 106.405V320c0 13.255 10.745 24 24 24h72.471c13.255 0 24-10.745 24-24v-5.773c0-42.86 125.268-44.645 125.268-160.627C377.504 66.256 286.902 0 202.021 0zM192 373.459c-38.196 0-69.271 31.075-69.271 69.271 0 38.195 31.075 69.27 69.271 69.27s69.271-31.075 69.271-69.271-31.075-69.27-69.271-69.27z"></path>
  </symbol>
  <symbol xmlns="http://www.w3.org/2000/svg" viewBox="0 0 512 512" id="question-regular">
    <path fill="currentColor" d="M464 32H336c-26.5 0-48 21.5-48 48v128c0 26.5 21.5 48 48 48h80v64c0 35.3-28.7 64-64 64h-8c-13.3 0-24 10.7-24 24v48c0 13.3 10.7 24 24 24h8c88.4 0 160-71.6 160-160V80c0-26.5-21.5-48-48-48zm-288 0H48C21.5 32 0 53.5 0 80v128c0 26.5 21.5 48 48 48h80v64c0 35.3-28.7 64-64 64h-8c-13.3 0-24 10.7-24 24v48c0 13.3 10.7 24 24 24h8c88.4 0 160-71.6 160-160V80c0-26.5-21.5-48-48-48z"></path>
  </symbol>
  <symbol xmlns="http://www.w3.org/2000/svg" viewBox="0 0 384 512" id="question-solid">
    <path fill="currentColor" d="M199.65 0C125.625 0 69.665 30.187 27.21 92.51c-19.17 28.15-12.94 66.3 14.17 86.86l36.73 27.85c10.81 8.2 24.19 12.79 37.74 12.96-11.84 19-17.82 40.61-17.82 64.55v11.43c0 16.38 6.2 31.34 16.38 42.65C97.99 357.2 88 381.45 88 408c0 57.35 46.65 104 104 104s104-46.65 104-104c0-26.55-9.99-50.8-26.41-69.19 8.66-9.62 14.43-21.87 15.97-35.38 28.287-16.853 96-48.895 96-138.21C381.56 71.151 290.539 0 199.65 0zM192 464c-30.88 0-56-25.12-56-56 0-30.873 25.118-56 56-56 30.887 0 56 25.132 56 56 0 30.88-25.12 56-56 56zm45.97-176.21v8.37c0 8.788-7.131 15.84-15.84 15.84h-60.26c-8.708 0-15.84-7.051-15.84-15.84v-11.43c0-47.18 35.77-66.04 62.81-81.2 23.18-13 37.39-21.83 37.39-39.04 0-22.77-29.04-37.88-52.52-37.88-30.61 0-44.74 14.49-64.6 39.56-5.365 6.771-15.157 8.01-22 2.8l-36.73-27.85c-6.74-5.11-8.25-14.6-3.49-21.59C98.08 73.73 137.8 48 199.65 48c64.77 0 133.91 50.56 133.91 117.22 0 88.51-95.59 89.87-95.59 122.57z"></path>
  </symbol>
  <symbol xmlns="http://www.w3.org/2000/svg" viewBox="0 0 576 512" id="quote-right-regular">
    <path fill="currentColor" d="M200 32H72C32.3 32 0 64.3 0 104v112c0 39.7 32.3 72 72 72h56v8c0 22.1-17.9 40-40 40h-8c-26.5 0-48 21.5-48 48v48c0 26.5 21.5 48 48 48h8c101.5 0 184-82.5 184-184V104c0-39.7-32.3-72-72-72zm24 264c0 75-61 136-136 136h-8v-48h8c48.5 0 88-39.5 88-88v-56H72c-13.2 0-24-10.8-24-24V104c0-13.2 10.8-24 24-24h128c13.2 0 24 10.8 24 24v192zM504 32H376c-39.7 0-72 32.3-72 72v112c0 39.7 32.3 72 72 72h56v8c0 22.1-17.9 40-40 40h-8c-26.5 0-48 21.5-48 48v48c0 26.5 21.5 48 48 48h8c101.5 0 184-82.5 184-184V104c0-39.7-32.3-72-72-72zm24 264c0 75-61 136-136 136h-8v-48h8c48.5 0 88-39.5 88-88v-56H376c-13.2 0-24-10.8-24-24V104c0-13.2 10.8-24 24-24h128c13.2 0 24 10.8 24 24v192z"></path>
  </symbol>
  <symbol xmlns="http://www.w3.org/2000/svg" viewBox="0 0 512 512" id="quote-right-solid">
    <path fill="currentColor" d="M505 442.7L405.3 343c-4.5-4.5-10.6-7-17-7H372c27.6-35.3 44-79.7 44-128C416 93.1 322.9 0 208 0S0 93.1 0 208s93.1 208 208 208c48.3 0 92.7-16.4 128-44v16.3c0 6.4 2.5 12.5 7 17l99.7 99.7c9.4 9.4 24.6 9.4 33.9 0l28.3-28.3c9.4-9.4 9.4-24.6.1-34zM208 336c-70.7 0-128-57.2-128-128 0-70.7 57.2-128 128-128 70.7 0 128 57.2 128 128 0 70.7-57.2 128-128 128z"></path>
  </symbol>
  <symbol xmlns="http://www.w3.org/2000/svg" viewBox="0 0 512 512" id="search-regular">
    <path fill="currentColor" d="M508.5 468.9L387.1 347.5c-2.3-2.3-5.3-3.5-8.5-3.5h-13.2c31.5-36.5 50.6-84 50.6-136C416 93.1 322.9 0 208 0S0 93.1 0 208s93.1 208 208 208c52 0 99.5-19.1 136-50.6v13.2c0 3.2 1.3 6.2 3.5 8.5l121.4 121.4c4.7 4.7 12.3 4.7 17 0l22.6-22.6c4.7-4.7 4.7-12.3 0-17zM208 368c-88.4 0-160-71.6-160-160S119.6 48 208 48s160 71.6 160 160-71.6 160-160 160z"></path>
  </symbol>
  <symbol xmlns="http://www.w3.org/2000/svg" viewBox="0 0 512 512" id="search-solid">
    <path fill="currentColor" d="M370.43 192.25A64 64 0 00314.86 160H197.14a64 64 0 00-55.57 32.25L36.22 376.62A32 32 0 0032 392.5V448a32 32 0 0032 32h384a32 32 0 0032-32v-55.5a32 32 0 00-4.22-15.88zM432 432H80v-35.25l103.25-180.69a16 16 0 0113.89-8.06h117.72a16 16 0 0113.89 8.06L432 396.75zM256 256a64 64 0 1064 64 64 64 0 00-64-64zm250.18-133C436.76 65 347.38 32 256 32S75.24 65 5.82 123A16.45 16.45 0 000 135.64V192a16 16 0 0016 16h70.11a16 16 0 0014.31-8.85L128 128c39.9-17.28 83.2-24 128-24 44.77 0 88.07 6.72 128 24l27.58 71.15a16 16 0 0014.31 8.85H496a16 16 0 0016-16v-56.36a16.45 16.45 0 00-5.82-12.64z"></path>
  </symbol>
  <symbol xmlns="http://www.w3.org/2000/svg" viewBox="0 0 512 512" id="spinner-third-duotone">
    <g fill="currentColor">
      <path d="M478.71 364.58zm-22 6.11l-27.83-15.9a15.92 15.92 0 01-6.94-19.2A184 184 0 11256 72c5.89 0 11.71.29 17.46.83-.74-.07-1.48-.15-2.23-.21-8.49-.69-15.23-7.31-15.23-15.83v-32a16 16 0 0115.34-16C266.24 8.46 261.18 8 256 8 119 8 8 119 8 256s111 248 248 248c98 0 182.42-56.95 222.71-139.42-4.13 7.86-14.23 10.55-22 6.11z" opacity=".4"></path>
      <path d="M271.23 72.62c-8.49-.69-15.23-7.31-15.23-15.83V24.73c0-9.11 7.67-16.78 16.77-16.17C401.92 17.18 504 124.67 504 256a246 246 0 01-25 108.24c-4 8.17-14.37 11-22.26 6.45l-27.84-15.9c-7.41-4.23-9.83-13.35-6.2-21.07A182.53 182.53 0 00440 256c0-96.49-74.27-175.63-168.77-183.38z"></path>
    </g>
  </symbol>
  <symbol xmlns="http://www.w3.org/2000/svg" viewBox="0 0 640 512" id="star-regular">
    <path fill="currentColor" d="M625.941 293.823L421.823 497.941c-18.746 18.746-49.138 18.745-67.882 0l-.36-.36L592 259.882 331.397 0h48.721a48 48 0 0133.941 14.059l211.882 211.882c18.745 18.745 18.745 49.137 0 67.882zm-128 0L293.823 497.941C284.451 507.314 272.166 512 259.882 512c-12.284 0-24.569-4.686-33.941-14.059L14.059 286.059A48 48 0 010 252.118V48C0 21.49 21.49 0 48 0h204.118a47.998 47.998 0 0133.941 14.059l211.882 211.882c18.745 18.745 18.745 49.137 0 67.882zM464 259.882L252.118 48H48v204.118l211.886 211.878L464 259.882zM144 96c-26.51 0-48 21.49-48 48s21.49 48 48 48 48-21.49 48-48-21.49-48-48-48z"></path>
  </symbol>
  <symbol version="1.0" xmlns="http://www.w3.org/2000/svg" viewBox="0 0 225 225" id="star-solid">
    <path d="M41.3 9.4c-8.2 2.7-16.5 9.1-21.4 16.6l-1.7 2.5-5.6-2.8C6 22.5 5 22.4 5 24.8c0 1.6 8.7 27.2 9.5 28 .8.8 29.5-9.3 29.5-10.3 0-.6-2.7-2.4-6-4s-6-3.4-6-4.2c0-1.9 6.2-7.7 10.6-9.9 5.1-2.5 15.5-2.5 20.4 0 4.1 2.1 11 8.5 11 10.1 0 .6-2.7 2.4-6 4s-6 3.4-6 4.1c0 1.1 28.7 11.1 29.5 10.2 1.3-1.6 9.3-28.4 8.6-29.1-.4-.4-3.4.4-6.6 2l-5.8 2.8-2.1-3C81.7 20 74.8 14.1 69.1 11.4c-6.9-3.3-20.9-4.3-27.8-2zm58.4 44.8C91 62.7 85.8 68.5 85.4 70.3c-1.1 4.8.5 9.6 4.8 14.3l4.1 4.5-5.6 5.7c-5 5.1-5.7 6.2-5.7 9.7 0 3.7.7 4.7 10.7 14.7l10.8 10.8-15.8 15.8c-9.3 9.3-15.7 16.5-15.7 17.6 0 1.1.6 2.7 1.4 3.5 1.3 1.4-.3 3.4-14 17.3-8.5 8.7-15.4 16.4-15.4 17.2 0 .8 3.2 4.8 7.1 9 5.4 5.8 7.7 7.6 9.7 7.6 2.1 0 5.9-3.3 17.8-15.1l15-15 3.2 1.8 3.2 1.8 15.7-15.7c8.7-8.7 16.2-15.8 16.8-15.8.5 0 5.7 4.7 11.5 10.5 13.4 13.1 14.2 13.3 23.4 4.5l6.2-6 3 3.1c4 4.2 7.5 5.9 12.4 5.9 4.5 0 4.6-.1 23.3-18.4 6.5-6.5 9.5-10 9.1-11.1-.3-.8-1.3-1.5-2.2-1.5-.9 0-7.5 5.9-14.6 13-11.8 11.7-13.4 13-16.6 13-3.3 0-6.3-2.8-51.2-47.8C93.1 80.6 90 77.2 90 74c0-3.2 1.1-4.6 13.1-16.1 9-8.7 13-13.2 12.8-14.4-.2-1-.9-2-1.5-2.2-.5-.2-7.2 5.6-14.7 12.9zM165.5 171c-2.7 2.7-5.6 5-6.5 5-1.5 0-72-69.8-72-71.3 0-.5 2.3-3.3 5.2-6.3l5.2-5.5 36.5 36.5 36.6 36.6-5 5zm-46.2-26.2l10.7 10.7-15 15-15 15-11-11-11-11 14.7-14.7c8.1-8.2 15-14.8 15.3-14.8.3 0 5.4 4.8 11.3 10.8zM86 178.5l5.5 5.5-14.7 14.7-14.6 14.6-5.6-5.3c-3.1-2.9-5.6-5.8-5.6-6.4 0-1.4 27.1-28.6 28.5-28.6.6 0 3.5 2.5 6.5 5.5z" fill="currentColor"></path>
  </symbol>
  <symbol xmlns="http://www.w3.org/2000/svg" viewBox="0 0 352 512" id="tags-regular">
    <path fill="currentColor" d="M242.72 256l100.07-100.07c12.28-12.28 12.28-32.19 0-44.48l-22.24-22.24c-12.28-12.28-32.19-12.28-44.48 0L176 189.28 75.93 89.21c-12.28-12.28-32.19-12.28-44.48 0L9.21 111.45c-12.28 12.28-12.28 32.19 0 44.48L109.28 256 9.21 356.07c-12.28 12.28-12.28 32.19 0 44.48l22.24 22.24c12.28 12.28 32.2 12.28 44.48 0L176 322.72l100.07 100.07c12.28 12.28 32.2 12.28 44.48 0l22.24-22.24c12.28-12.28 12.28-32.19 0-44.48L242.72 256z"></path>
  </symbol>
  <symbol xmlns="http://www.w3.org/2000/svg" viewBox="0 0 496 512" id="tags-solid">
    <path fill="currentColor" d="M248 104c-53 0-96 43-96 96s43 96 96 96 96-43 96-96-43-96-96-96zm0 144c-26.5 0-48-21.5-48-48s21.5-48 48-48 48 21.5 48 48-21.5 48-48 48zm0-240C111 8 0 119 0 256s111 248 248 248 248-111 248-248S385 8 248 8zm0 448c-49.7 0-95.1-18.3-130.1-48.4 14.9-23 40.4-38.6 69.6-39.5 20.8 6.4 40.6 9.6 60.5 9.6s39.7-3.1 60.5-9.6c29.2 1 54.7 16.5 69.6 39.5-35 30.1-80.4 48.4-130.1 48.4zm162.7-84.1c-24.4-31.4-62.1-51.9-105.1-51.9-10.2 0-26 9.6-57.6 9.6-31.5 0-47.4-9.6-57.6-9.6-42.9 0-80.6 20.5-105.1 51.9C61.9 339.2 48 299.2 48 256c0-110.3 89.7-200 200-200s200 89.7 200 200c0 43.2-13.9 83.2-37.3 115.9z"></path>
  </symbol>
  <symbol xmlns="http://www.w3.org/2000/svg" viewBox="0 0 640 512" id="tilt-head-regular">
    <path fill="currentColor" d="M544 224c44.2 0 80-35.8 80-80s-35.8-80-80-80-80 35.8-80 80 35.8 80 80 80zm0-112c17.6 0 32 14.4 32 32s-14.4 32-32 32-32-14.4-32-32 14.4-32 32-32zM96 224c44.2 0 80-35.8 80-80s-35.8-80-80-80-80 35.8-80 80 35.8 80 80 80zm0-112c17.6 0 32 14.4 32 32s-14.4 32-32 32-32-14.4-32-32 14.4-32 32-32zm396.4 210.9c-27.5-40.8-80.7-56-127.8-41.7-14.2 4.3-29.1 6.7-44.7 6.7s-30.5-2.4-44.7-6.7c-47.1-14.3-100.3.8-127.8 41.7-12.4 18.4-19.6 40.5-19.6 64.3V432c0 26.5 21.5 48 48 48h288c26.5 0 48-21.5 48-48v-44.8c.2-23.8-7-45.9-19.4-64.3zM464 432H176v-44.8c0-36.4 29.2-66.2 65.4-67.2 25.5 10.6 51.9 16 78.6 16 26.7 0 53.1-5.4 78.6-16 36.2 1 65.4 30.7 65.4 67.2V432zm92-176h-24c-17.3 0-33.4 5.3-46.8 14.3 13.4 10.1 25.2 22.2 34.4 36.2 3.9-1.4 8-2.5 12.3-2.5h24c19.8 0 36 16.2 36 36 0 13.2 10.8 24 24 24s24-10.8 24-24c.1-46.3-37.6-84-83.9-84zm-236 0c61.9 0 112-50.1 112-112S381.9 32 320 32 208 82.1 208 144s50.1 112 112 112zm0-176c35.3 0 64 28.7 64 64s-28.7 64-64 64-64-28.7-64-64 28.7-64 64-64zM154.8 270.3c-13.4-9-29.5-14.3-46.8-14.3H84c-46.3 0-84 37.7-84 84 0 13.2 10.8 24 24 24s24-10.8 24-24c0-19.8 16.2-36 36-36h24c4.4 0 8.5 1.1 12.3 2.5 9.3-14 21.1-26.1 34.5-36.2z"></path>
  </symbol>
  <symbol xmlns="http://www.w3.org/2000/svg" viewBox="0 0 640 512" id="times-regular">
    <path fill="currentColor" d="M497.941 225.941L286.059 14.059A48 48 0 00252.118 0H48C21.49 0 0 21.49 0 48v204.118a48 48 0 0014.059 33.941l211.882 211.882c18.744 18.745 49.136 18.746 67.882 0l204.118-204.118c18.745-18.745 18.745-49.137 0-67.882zM112 160c-26.51 0-48-21.49-48-48s21.49-48 48-48 48 21.49 48 48-21.49 48-48 48zm513.941 133.823L421.823 497.941c-18.745 18.745-49.137 18.745-67.882 0l-.36-.36L527.64 323.522c16.999-16.999 26.36-39.6 26.36-63.64s-9.362-46.641-26.36-63.64L331.397 0h48.721a48 48 0 0133.941 14.059l211.882 211.882c18.745 18.745 18.745 49.137 0 67.882z"></path>
  </symbol>
  <symbol xmlns="http://www.w3.org/2000/svg" viewBox="0 0 448 512" id="times-solid">
    <path fill="currentColor" d="M12.83 344h262.34A12.82 12.82 0 00288 331.17v-22.34A12.82 12.82 0 00275.17 296H12.83A12.82 12.82 0 000 308.83v22.34A12.82 12.82 0 0012.83 344zm0-256h262.34A12.82 12.82 0 00288 75.17V52.83A12.82 12.82 0 00275.17 40H12.83A12.82 12.82 0 000 52.83v22.34A12.82 12.82 0 0012.83 88zM432 168H16a16 16 0 00-16 16v16a16 16 0 0016 16h416a16 16 0 0016-16v-16a16 16 0 00-16-16zm0 256H16a16 16 0 00-16 16v16a16 16 0 0016 16h416a16 16 0 0016-16v-16a16 16 0 00-16-16z"></path>
  </symbol>
  <symbol xmlns="http://www.w3.org/2000/svg" viewBox="0 0 496 512" id="user-circle-regular">
    <path fill="currentColor" d="M248 8C111 8 0 119 0 256s111 248 248 248 248-111 248-248S385 8 248 8zm0 96c48.6 0 88 39.4 88 88s-39.4 88-88 88-88-39.4-88-88 39.4-88 88-88zm0 344c-58.7 0-111.3-26.6-146.5-68.2 18.8-35.4 55.6-59.8 98.5-59.8 2.4 0 4.8.4 7.1 1.1 13 4.2 26.6 6.9 40.9 6.9 14.3 0 28-2.7 40.9-6.9 2.3-.7 4.7-1.1 7.1-1.1 42.9 0 79.7 24.4 98.5 59.8C359.3 421.4 306.7 448 248 448z"></path>
  </symbol>
  <symbol xmlns="http://www.w3.org/2000/svg" viewBox="0 0 640 512" id="user-circle-solid">
    <path fill="currentColor" d="M96 224c35.3 0 64-28.7 64-64s-28.7-64-64-64-64 28.7-64 64 28.7 64 64 64zm448 0c35.3 0 64-28.7 64-64s-28.7-64-64-64-64 28.7-64 64 28.7 64 64 64zm32 32h-64c-17.6 0-33.5 7.1-45.1 18.6 40.3 22.1 68.9 62 75.1 109.4h66c17.7 0 32-14.3 32-32v-32c0-35.3-28.7-64-64-64zm-256 0c61.9 0 112-50.1 112-112S381.9 32 320 32 208 82.1 208 144s50.1 112 112 112zm76.8 32h-8.3c-20.8 10-43.9 16-68.5 16s-47.6-6-68.5-16h-8.3C179.6 288 128 339.6 128 403.2V432c0 26.5 21.5 48 48 48h288c26.5 0 48-21.5 48-48v-28.8c0-63.6-51.6-115.2-115.2-115.2zm-223.7-13.4C161.5 263.1 145.6 256 128 256H64c-35.3 0-64 28.7-64 64v32c0 17.7 14.3 32 32 32h65.9c6.3-47.4 34.9-87.3 75.2-109.4z"></path>
  </symbol>
  <symbol xmlns="http://www.w3.org/2000/svg" viewBox="0 0 576 512" id="users-cog-regular">
    <path fill="currentColor" d="M528.1 171.5L382 150.2 316.7 17.8c-11.7-23.6-45.6-23.9-57.4 0L194 150.2 47.9 171.5c-26.2 3.8-36.7 36.1-17.7 54.6l105.7 103-25 145.5c-4.5 26.3 23.2 46 46.4 33.7L288 439.6l130.7 68.7c23.2 12.2 50.9-7.4 46.4-33.7l-25-145.5 105.7-103c19-18.5 8.5-50.8-17.7-54.6zM388.6 312.3l23.7 138.4L288 385.4l-124.3 65.3 23.7-138.4-100.6-98 139-20.2 62.2-126 62.2 126 139 20.2-100.6 98z"></path>
  </symbol>
  <symbol xmlns="http://www.w3.org/2000/svg" viewBox="0 0 576 512" id="users-cog-solid">
    <path fill="#ffb400" d="M259.3 17.8L194 150.2 47.9 171.5c-26.2 3.8-36.7 36.1-17.7 54.6l105.7 103-25 145.5c-4.5 26.3 23.2 46 46.4 33.7L288 439.6l130.7 68.7c23.2 12.2 50.9-7.4 46.4-33.7l-25-145.5 105.7-103c19-18.5 8.5-50.8-17.7-54.6L382 150.2 316.7 17.8c-11.7-23.6-45.6-23.9-57.4 0z"></path>
  </symbol>
  <symbol xmlns="http://www.w3.org/2000/svg" viewBox="0 0 640 512" id="users-regular">
    <path fill="currentColor" d="M610.5 341.3c2.6-14.1 2.6-28.5 0-42.6l25.8-14.9c3-1.7 4.3-5.2 3.3-8.5-6.7-21.6-18.2-41.2-33.2-57.4-2.3-2.5-6-3.1-9-1.4l-25.8 14.9c-10.9-9.3-23.4-16.5-36.9-21.3v-29.8c0-3.4-2.4-6.4-5.7-7.1-22.3-5-45-4.8-66.2 0-3.3.7-5.7 3.7-5.7 7.1v29.8c-13.5 4.8-26 12-36.9 21.3l-25.8-14.9c-2.9-1.7-6.7-1.1-9 1.4-15 16.2-26.5 35.8-33.2 57.4-1 3.3.4 6.8 3.3 8.5l25.8 14.9c-2.6 14.1-2.6 28.5 0 42.6l-25.8 14.9c-3 1.7-4.3 5.2-3.3 8.5 6.7 21.6 18.2 41.1 33.2 57.4 2.3 2.5 6 3.1 9 1.4l25.8-14.9c10.9 9.3 23.4 16.5 36.9 21.3v29.8c0 3.4 2.4 6.4 5.7 7.1 22.3 5 45 4.8 66.2 0 3.3-.7 5.7-3.7 5.7-7.1v-29.8c13.5-4.8 26-12 36.9-21.3l25.8 14.9c2.9 1.7 6.7 1.1 9-1.4 15-16.2 26.5-35.8 33.2-57.4 1-3.3-.4-6.8-3.3-8.5l-25.8-14.9zM496 368.5c-26.8 0-48.5-21.8-48.5-48.5s21.8-48.5 48.5-48.5 48.5 21.8 48.5 48.5-21.7 48.5-48.5 48.5zM96 224c35.3 0 64-28.7 64-64s-28.7-64-64-64-64 28.7-64 64 28.7 64 64 64zm224 32c1.9 0 3.7-.5 5.6-.6 8.3-21.7 20.5-42.1 36.3-59.2 7.4-8 17.9-12.6 28.9-12.6 6.9 0 13.7 1.8 19.6 5.3l7.9 4.6c.8-.5 1.6-.9 2.4-1.4 7-14.6 11.2-30.8 11.2-48 0-61.9-50.1-112-112-112S208 82.1 208 144c0 61.9 50.1 112 112 112zm105.2 194.5c-2.3-1.2-4.6-2.6-6.8-3.9-8.2 4.8-15.3 9.8-27.5 9.8-10.9 0-21.4-4.6-28.9-12.6-18.3-19.8-32.3-43.9-40.2-69.6-10.7-34.5 24.9-49.7 25.8-50.3-.1-2.6-.1-5.2 0-7.8l-7.9-4.6c-3.8-2.2-7-5-9.8-8.1-3.3.2-6.5.6-9.8.6-24.6 0-47.6-6-68.5-16h-8.3C179.6 288 128 339.6 128 403.2V432c0 26.5 21.5 48 48 48h255.4c-3.7-6-6.2-12.8-6.2-20.3v-9.2zM173.1 274.6C161.5 263.1 145.6 256 128 256H64c-35.3 0-64 28.7-64 64v32c0 17.7 14.3 32 32 32h65.9c6.3-47.4 34.9-87.3 75.2-109.4z"></path>
  </symbol>
  <symbol xmlns="http://www.w3.org/2000/svg" viewBox="0 0 640 512" id="users-solid">
    <path fill="currentColor" d="M315.3 255.5c6.8-19 16.4-36.5 28.4-52.2-7.4 3-15.4 4.7-23.8 4.7-35.3 0-64-28.7-64-64s28.7-64 64-64 64 28.7 64 64c0 8.4-1.7 16.4-4.7 23.8 15.7-12 33.2-21.7 52.2-28.4C429 79.7 380.3 32 320 32c-61.9 0-112 50.1-112 112 0 60.3 47.7 109 107.3 111.5zM96 224c44.2 0 80-35.8 80-80s-35.8-80-80-80-80 35.8-80 80 35.8 80 80 80zm0-112c17.6 0 32 14.4 32 32s-14.4 32-32 32-32-14.4-32-32 14.4-32 32-32zm244.3 320H176v-44.8c0-36.4 29.2-66.2 65.4-67.2 20.6 8.6 41.9 13.6 63.4 15.2-.7-9.3-2-24 2.3-48.6-16.8-1.5-33.1-4.9-48-11.2-5.1-2.1-10.4-3.4-15.9-3.4-63.6 0-115.2 51.6-115.2 115.2V432c0 26.5 21.5 48 48 48h214c-19.4-12.9-36.2-29.2-49.7-48zM154.8 270.3c-13.4-9-29.5-14.3-46.8-14.3H84c-46.3 0-84 37.7-84 84 0 13.2 10.8 24 24 24s24-10.8 24-24c0-19.8 16.2-36 36-36h24c4.4 0 8.5 1.1 12.3 2.5 9.3-14 21.1-26.1 34.5-36.2zm455.7 71c2.6-14.1 2.6-28.5 0-42.6l25.8-14.9c3-1.7 4.3-5.2 3.3-8.5-6.7-21.6-18.2-41.2-33.2-57.4-2.3-2.5-6-3.1-9-1.4l-25.8 14.9c-10.9-9.3-23.4-16.5-36.9-21.3v-29.8c0-3.4-2.4-6.4-5.7-7.1-22.3-5-45-4.8-66.2 0-3.3.7-5.7 3.7-5.7 7.1v29.8c-13.5 4.8-26 12-36.9 21.3l-25.8-14.9c-2.9-1.7-6.7-1.1-9 1.4-15 16.2-26.5 35.8-33.2 57.4-1 3.3.4 6.8 3.3 8.5l25.8 14.9c-2.6 14.1-2.6 28.5 0 42.6l-25.8 14.9c-3 1.7-4.3 5.2-3.3 8.5 6.7 21.6 18.2 41.1 33.2 57.4 2.3 2.5 6 3.1 9 1.4l25.8-14.9c10.9 9.3 23.4 16.5 36.9 21.3v29.8c0 3.4 2.4 6.4 5.7 7.1 22.3 5 45 4.8 66.2 0 3.3-.7 5.7-3.7 5.7-7.1v-29.8c13.5-4.8 26-12 36.9-21.3l25.8 14.9c2.9 1.7 6.7 1.1 9-1.4 15-16.2 26.5-35.8 33.2-57.4 1-3.3-.4-6.8-3.3-8.5l-25.8-14.9zM496 368.5c-26.8 0-48.5-21.8-48.5-48.5s21.8-48.5 48.5-48.5 48.5 21.8 48.5 48.5-21.7 48.5-48.5 48.5z"></path>
  </symbol>
  <symbol xmlns="http://www.w3.org/2000/svg" viewBox="0 0 320 512" id="align-left-regular">
    <path fill="currentColor" d="M207.6 256l107.72-107.72c6.23-6.23 6.23-16.34 0-22.58l-25.03-25.03c-6.23-6.23-16.34-6.23-22.58 0L160 208.4 52.28 100.68c-6.23-6.23-16.34-6.23-22.58 0L4.68 125.7c-6.23 6.23-6.23 16.34 0 22.58L112.4 256 4.68 363.72c-6.23 6.23-6.23 16.34 0 22.58l25.03 25.03c6.23 6.23 16.34 6.23 22.58 0L160 303.6l107.72 107.72c6.23 6.23 16.34 6.23 22.58 0l25.03-25.03c6.23-6.23 6.23-16.34 0-22.58L207.6 256z"></path>
  </symbol>
  <symbol xmlns="http://www.w3.org/2000/svg" viewBox="0 0 448 512" id="align-left-solid">
    <path fill="currentColor" d="M148 288h-40c-6.6 0-12-5.4-12-12v-40c0-6.6 5.4-12 12-12h40c6.6 0 12 5.4 12 12v40c0 6.6-5.4 12-12 12zm108-12v-40c0-6.6-5.4-12-12-12h-40c-6.6 0-12 5.4-12 12v40c0 6.6 5.4 12 12 12h40c6.6 0 12-5.4 12-12zm96 0v-40c0-6.6-5.4-12-12-12h-40c-6.6 0-12 5.4-12 12v40c0 6.6 5.4 12 12 12h40c6.6 0 12-5.4 12-12zm-96 96v-40c0-6.6-5.4-12-12-12h-40c-6.6 0-12 5.4-12 12v40c0 6.6 5.4 12 12 12h40c6.6 0 12-5.4 12-12zm-96 0v-40c0-6.6-5.4-12-12-12h-40c-6.6 0-12 5.4-12 12v40c0 6.6 5.4 12 12 12h40c6.6 0 12-5.4 12-12zm192 0v-40c0-6.6-5.4-12-12-12h-40c-6.6 0-12 5.4-12 12v40c0 6.6 5.4 12 12 12h40c6.6 0 12-5.4 12-12zm96-260v352c0 26.5-21.5 48-48 48H48c-26.5 0-48-21.5-48-48V112c0-26.5 21.5-48 48-48h48V12c0-6.6 5.4-12 12-12h40c6.6 0 12 5.4 12 12v52h128V12c0-6.6 5.4-12 12-12h40c6.6 0 12 5.4 12 12v52h48c26.5 0 48 21.5 48 48zm-48 346V160H48v298c0 3.3 2.7 6 6 6h340c3.3 0 6-2.7 6-6z"></path>
  </symbol>
  <symbol xmlns="http://www.w3.org/2000/svg" viewBox="0 0 448 512" id="bars-regular">
    <path fill="currentColor" d="M0 464c0 26.5 21.5 48 48 48h352c26.5 0 48-21.5 48-48V192H0v272zm320-196c0-6.6 5.4-12 12-12h40c6.6 0 12 5.4 12 12v40c0 6.6-5.4 12-12 12h-40c-6.6 0-12-5.4-12-12v-40zm0 128c0-6.6 5.4-12 12-12h40c6.6 0 12 5.4 12 12v40c0 6.6-5.4 12-12 12h-40c-6.6 0-12-5.4-12-12v-40zM192 268c0-6.6 5.4-12 12-12h40c6.6 0 12 5.4 12 12v40c0 6.6-5.4 12-12 12h-40c-6.6 0-12-5.4-12-12v-40zm0 128c0-6.6 5.4-12 12-12h40c6.6 0 12 5.4 12 12v40c0 6.6-5.4 12-12 12h-40c-6.6 0-12-5.4-12-12v-40zM64 268c0-6.6 5.4-12 12-12h40c6.6 0 12 5.4 12 12v40c0 6.6-5.4 12-12 12H76c-6.6 0-12-5.4-12-12v-40zm0 128c0-6.6 5.4-12 12-12h40c6.6 0 12 5.4 12 12v40c0 6.6-5.4 12-12 12H76c-6.6 0-12-5.4-12-12v-40zM400 64h-48V16c0-8.8-7.2-16-16-16h-32c-8.8 0-16 7.2-16 16v48H160V16c0-8.8-7.2-16-16-16h-32c-8.8 0-16 7.2-16 16v48H48C21.5 64 0 85.5 0 112v48h448v-48c0-26.5-21.5-48-48-48z"></path>
  </symbol>
  <symbol xmlns="http://www.w3.org/2000/svg" viewBox="0 0 448 512" id="bars-solid">
    <path fill="currentColor" d="M436 124H12c-6.627 0-12-5.373-12-12V80c0-6.627 5.373-12 12-12h424c6.627 0 12 5.373 12 12v32c0 6.627-5.373 12-12 12zm0 160H12c-6.627 0-12-5.373-12-12v-32c0-6.627 5.373-12 12-12h424c6.627 0 12 5.373 12 12v32c0 6.627-5.373 12-12 12zm0 160H12c-6.627 0-12-5.373-12-12v-32c0-6.627 5.373-12 12-12h424c6.627 0 12 5.373 12 12v32c0 6.627-5.373 12-12 12z"></path>
  </symbol>
  <symbol xmlns="http://www.w3.org/2000/svg" viewBox="0 0 448 512" id="calendar-alt-regular">
    <path fill="currentColor" d="M12.83 352h262.34A12.82 12.82 0 00288 339.17v-38.34A12.82 12.82 0 00275.17 288H12.83A12.82 12.82 0 000 300.83v38.34A12.82 12.82 0 0012.83 352zm0-256h262.34A12.82 12.82 0 00288 83.17V44.83A12.82 12.82 0 00275.17 32H12.83A12.82 12.82 0 000 44.83v38.34A12.82 12.82 0 0012.83 96zM432 160H16a16 16 0 00-16 16v32a16 16 0 0016 16h416a16 16 0 0016-16v-32a16 16 0 00-16-16zm0 256H16a16 16 0 00-16 16v32a16 16 0 0016 16h416a16 16 0 0016-16v-32a16 16 0 00-16-16z"></path>
  </symbol>
  <symbol xmlns="http://www.w3.org/2000/svg" viewBox="0 0 448 512" id="calendar-alt-solid">
    <path fill="currentColor" d="M16 132h416c8.837 0 16-7.163 16-16V76c0-8.837-7.163-16-16-16H16C7.163 60 0 67.163 0 76v40c0 8.837 7.163 16 16 16zm0 160h416c8.837 0 16-7.163 16-16v-40c0-8.837-7.163-16-16-16H16c-8.837 0-16 7.163-16 16v40c0 8.837 7.163 16 16 16zm0 160h416c8.837 0 16-7.163 16-16v-40c0-8.837-7.163-16-16-16H16c-8.837 0-16 7.163-16 16v40c0 8.837 7.163 16 16 16z"></path>
  </symbol>
  <symbol xmlns="http://www.w3.org/2000/svg" viewBox="0 0 256 512" id="check-circle-regular">
    <path fill="currentColor" d="M231.293 473.899l19.799-19.799c4.686-4.686 4.686-12.284 0-16.971L70.393 256 251.092 74.87c4.686-4.686 4.686-12.284 0-16.971L231.293 38.1c-4.686-4.686-12.284-4.686-16.971 0L4.908 247.515c-4.686 4.686-4.686 12.284 0 16.971L214.322 473.9c4.687 4.686 12.285 4.686 16.971-.001z"></path>
  </symbol>
  <symbol xmlns="http://www.w3.org/2000/svg" viewBox="0 0 448 512" id="check-circle-solid">
    <path fill="currentColor" d="M441.9 167.3l-19.8-19.8c-4.7-4.7-12.3-4.7-17 0L224 328.2 42.9 147.5c-4.7-4.7-12.3-4.7-17 0L6.1 167.3c-4.7 4.7-4.7 12.3 0 17l209.4 209.4c4.7 4.7 12.3 4.7 17 0l209.4-209.4c4.7-4.7 4.7-12.3 0-17z"></path>
  </symbol>
  <symbol xmlns="http://www.w3.org/2000/svg" viewBox="0 0 512 512" id="chevron-down-regular">
    <path fill="currentColor" d="M504 256c0 136.967-111.033 248-248 248S8 392.967 8 256 119.033 8 256 8s248 111.033 248 248zM227.314 387.314l184-184c6.248-6.248 6.248-16.379 0-22.627l-22.627-22.627c-6.248-6.249-16.379-6.249-22.628 0L216 308.118l-70.059-70.059c-6.248-6.248-16.379-6.248-22.628 0l-22.627 22.627c-6.248 6.248-6.248 16.379 0 22.627l104 104c6.249 6.249 16.379 6.249 22.628.001z"></path>
  </symbol>
  <symbol xmlns="http://www.w3.org/2000/svg" viewBox="0 0 448 512" id="chevron-down-solid">
    <path fill="currentColor" d="M207.029 381.476L12.686 187.132c-9.373-9.373-9.373-24.569 0-33.941l22.667-22.667c9.357-9.357 24.522-9.375 33.901-.04L224 284.505l154.745-154.021c9.379-9.335 24.544-9.317 33.901.04l22.667 22.667c9.373 9.373 9.373 24.569 0 33.941L240.971 381.476c-9.373 9.372-24.569 9.372-33.942 0z"></path>
  </symbol>
  <symbol xmlns="http://www.w3.org/2000/svg" viewBox="0 0 512 512" id="chevron-left-regular">
    <path fill="currentColor" d="M256 8C119.033 8 8 119.033 8 256s111.033 248 248 248 248-111.033 248-248S392.967 8 256 8zm0 48c110.532 0 200 89.451 200 200 0 110.532-89.451 200-200 200-110.532 0-200-89.451-200-200 0-110.532 89.451-200 200-200m140.204 130.267l-22.536-22.718c-4.667-4.705-12.265-4.736-16.97-.068L215.346 303.697l-59.792-60.277c-4.667-4.705-12.265-4.736-16.97-.069l-22.719 22.536c-4.705 4.667-4.736 12.265-.068 16.971l90.781 91.516c4.667 4.705 12.265 4.736 16.97.068l172.589-171.204c4.704-4.668 4.734-12.266.067-16.971z"></path>
  </symbol>
  <symbol xmlns="http://www.w3.org/2000/svg" viewBox="0 0 320 512" id="chevron-left-solid">
    <path fill="currentColor" d="M34.52 239.03L228.87 44.69c9.37-9.37 24.57-9.37 33.94 0l22.67 22.67c9.36 9.36 9.37 24.52.04 33.9L131.49 256l154.02 154.75c9.34 9.38 9.32 24.54-.04 33.9l-22.67 22.67c-9.37 9.37-24.57 9.37-33.94 0L34.52 272.97c-9.37-9.37-9.37-24.57 0-33.94z"></path>
  </symbol>
</svg>