<svg role="img" xmlns="http://www.w3.org/2000/svg" viewBox="0 0 300 300">
  <g>
    <rect x="-150" width="599.69" height="299.97" fill="#fff" />
    <polygon
      points="119.86 179.89 119.86 299.97 179.83 299.97 179.83 179.89 449.69 179.89 449.69 119.92 179.83 119.92 179.83 0 119.86 0 119.86 119.92 -150 119.92 -150 179.89 119.86 179.89"
      fill="#cf142b"
    />
    <polygon points="199.83 97.1 199.83 0 393.99 0 199.83 97.1" fill="#00247d" />
    <polygon points="199.83 202.87 199.83 299.97 393.99 299.97 199.83 202.87" fill="#00247d" />
    <polygon points="99.86 202.87 99.86 299.97 -94.3 299.97 99.86 202.87" fill="#00247d" />
    <polygon points="99.86 97.1 99.86 0 -94.3 0 99.86 97.1" fill="#00247d" />
    <polyline points="449.69 0 416.38 0 216.8 99.99 250.11 99.99 450 0" fill="#cf142b" />
    <polyline points="82.89 199.97 49.58 199.97 -150 299.96 -116.69 299.96 83.2 199.97" fill="#cf142b" />
    <polygon points="16.54 100.06 49.84 100.06 -150 0 -150 16.77 16.54 100.06" fill="#cf142b" />
    <polygon points="283.05 199.94 249.74 199.94 449.58 300 449.58 283.23 283.05 199.94" fill="#cf142b" />
  </g>
</svg>