<svg role="img" xmlns="http://www.w3.org/2000/svg" viewBox="0 0 300 300">
  <g>
    <rect width="300" height="300" fill="#de2910" />
    <polygon points="75 30 101.45 111.41 32.2 61.09 117.8 61.09 48.55 111.41 75 30" fill="#ffde00" />
    <polygon points="137.14 37.72 155.87 16.2 153.37 44.62 138.69 20.15 164.94 31.32 137.14 37.72" fill="#ffde00" />
    <polygon
      points="165.15 62.12 190.77 49.56 177.43 74.78 173.39 46.53 193.26 67.01 165.15 62.12"
      fill="#ffde00"
    />
    <polygon
      points="165.58 100.88 194.09 99.86 171.62 117.44 179.46 90.01 189.25 116.81 165.58 100.88"
      fill="#ffde00"
    />
    <polygon
      points="138.29 125.63 164.98 135.7 137.47 143.24 155.29 120.97 153.97 149.47 138.29 125.63"
      fill="#ffde00"
    />
  </g>
</svg>