<svg version="1.0" xmlns="http://www.w3.org/2000/svg" viewBox="0 0 225 225"
 preserveAspectRatio="xMidYMid meet">
<g transform="translate(0,225) scale(0.100000,-0.100000)"
fill="currentColor" stroke="none">
<path d="M413 2156 c-82 -27 -165 -91 -214 -166 l-17 -25 -56 28 c-66 32 -76
33 -76 9 0 -16 87 -272 95 -280 8 -8 295 93 295 103 0 6 -27 24 -60 40 -33 16
-60 34 -60 42 0 19 62 77 106 99 51 25 155 25 204 0 41 -21 110 -85 110 -101
0 -6 -27 -24 -60 -40 -33 -16 -60 -34 -60 -41 0 -11 287 -111 295 -102 13 16
93 284 86 291 -4 4 -34 -4 -66 -20 l-58 -28 -21 30 c-39 55 -108 114 -165 141
-69 33 -209 43 -278 20z"/>
<path d="M997 1708 c-87 -85 -139 -143 -143 -161 -11 -48 5 -96 48 -143 l41
-45 -56 -57 c-50 -51 -57 -62 -57 -97 0 -37 7 -47 107 -147 l108 -108 -158
-158 c-93 -93 -157 -165 -157 -176 0 -11 6 -27 14 -35 13 -14 -3 -34 -140
-173 -85 -87 -154 -164 -154 -172 0 -8 32 -48 71 -90 54 -58 77 -76 97 -76 21
0 59 33 178 151 l150 150 32 -18 32 -18 157 157 c87 87 162 158 168 158 5 0
57 -47 115 -105 134 -131 142 -133 234 -45 l62 60 30 -31 c40 -42 75 -59 124
-59 45 0 46 1 233 184 65 65 95 100 91 111 -3 8 -13 15 -22 15 -9 0 -75 -59
-146 -130 -118 -117 -134 -130 -166 -130 -33 0 -63 28 -512 478 -447 446 -478
480 -478 512 0 32 11 46 131 161 90 87 130 132 128 144 -2 10 -9 20 -15 22 -5
2 -72 -56 -147 -129z m658 -1168 c-27 -27 -56 -50 -65 -50 -15 0 -720 698
-720 713 0 5 23 33 52 63 l52 55 365 -365 366 -366 -50 -50z m-462 262 l107
-107 -150 -150 -150 -150 -110 110 -110 110 147 147 c81 82 150 148 153 148 3
0 54 -48 113 -108z m-333 -337 l55 -55 -147 -147 -146 -146 -56 53 c-31 29
-56 58 -56 64 0 14 271 286 285 286 6 0 35 -25 65 -55z"/>
</g>
</svg>
